<?xml version="1.0" encoding="UTF-8" standalone="no"?>
<svg
   viewBox="0 0 512 512"
   width="512"
   height="512"
   version="1.1"
   id="svg15"
   sodipodi:docname="icon.svg"
   inkscape:version="1.4.3 (0d15f75, 2025-12-25)"
   xmlns:inkscape="http://www.inkscape.org/namespaces/inkscape"
   xmlns:sodipodi="http://sodipodi.sourceforge.net/DTD/sodipodi-0.dtd"
   xmlns:xlink="http://www.w3.org/1999/xlink"
   xmlns="http://www.w3.org/2000/svg"
   xmlns:svg="http://www.w3.org/2000/svg">
  <sodipodi:namedview
     id="namedview15"
     pagecolor="#ffffff"
     bordercolor="#000000"
     borderopacity="0.25"
     inkscape:showpageshadow="2"
     inkscape:pageopacity="0.0"
     inkscape:pagecheckerboard="0"
     inkscape:deskcolor="#d1d1d1"
     inkscape:zoom="1.5898438"
     inkscape:cx="255.6855"
     inkscape:cy="205.68059"
     inkscape:window-width="1920"
     inkscape:window-height="963"
     inkscape:window-x="1920"
     inkscape:window-y="30"
     inkscape:window-maximized="1"
     inkscape:current-layer="svg15" />
  <defs
     id="defs8">
    <!-- Y2K gradient background -->
    <linearGradient
       id="bgGrad"
       x1="0%"
       y1="0%"
       x2="100%"
       y2="100%">
      <stop
         offset="0%"
         style="stop-color:#7B2FFF"
         id="stop1" />
      <stop
         offset="50%"
         style="stop-color:#FF2FAA"
         id="stop2" />
      <stop
         offset="100%"
         style="stop-color:#FF6B35"
         id="stop3" />
    </linearGradient>
    <!-- Shiny Z gradient -->
    <linearGradient
       id="zGrad"
       x1="90.694421"
       y1="135.82974"
       x2="90.694421"
       y2="433.15785"
       gradientTransform="matrix(-1.1242738,0,0,1.1407645,508.84379,-79.026068)"
       gradientUnits="userSpaceOnUse">
      <stop
         offset="0%"
         style="stop-color:#FFFFFF"
         id="stop4" />
      <stop
         offset="30%"
         style="stop-color:#FFF845"
         id="stop5" />
      <stop
         offset="100%"
         style="stop-color:#FFB800"
         id="stop6" />
    </linearGradient>
    <!-- Star sparkle gradient -->
    <radialGradient
       id="starGrad"
       cx="50%"
       cy="50%"
       r="50%">
      <stop
         offset="0%"
         style="stop-color:#FFFFFF"
         id="stop7" />
      <stop
         offset="100%"
         style="stop-color:#FFF845"
         id="stop8" />
    </radialGradient>
    <radialGradient
       inkscape:collect="always"
       xlink:href="#starGrad"
       id="radialGradient15"
       cx="0"
       cy="0"
       r="25"
       fx="0"
       fy="0"
       gradientUnits="userSpaceOnUse" />
    <radialGradient
       inkscape:collect="always"
       xlink:href="#starGrad"
       id="radialGradient16"
       cx="0"
       cy="0"
       r="25"
       fx="0"
       fy="0"
       gradientUnits="userSpaceOnUse" />
    <radialGradient
       inkscape:collect="always"
       xlink:href="#starGrad"
       id="radialGradient17"
       cx="0"
       cy="0"
       r="25"
       fx="0"
       fy="0"
       gradientUnits="userSpaceOnUse" />
  </defs>
  <!-- Rounded square background -->
  <rect
     x="20"
     y="20"
     width="472"
     height="472"
     rx="80"
     ry="80"
     fill="url(#bgGrad)"
     id="rect8" />
  <!-- Outer glow ring -->
  <rect
     x="40"
     y="40"
     width="432"
     height="432"
     rx="65"
     ry="65"
     fill="none"
     stroke="rgba(255,255,255,0.3)"
     stroke-width="8"
     id="rect9" />
  <!-- 3D shadow for Z -->
  <path
     d="M 395.31537,94.224826 H 109.39189 q -21.023781,0 -21.023781,24.401534 0,24.40153 21.023781,24.40153 H 290.19644 L 109.39189,377.28263 q -21.023781,24.40153 0,48.80306 h 285.92348 q 21.02379,0 21.02379,-24.40153 0,-24.40153 -21.02379,-24.40153 H 214.51082 L 395.31537,143.02789 q 21.02379,-24.40153 21.02379,-24.40153 0,-24.401534 -21.02379,-24.401534 z"
     fill="#000000"
     opacity="0.25"
     id="path9"
     style="stroke-width:1.13249" />
  <!-- Main chunky Z -->
  <path
     d="M 382.7011,79.583905 H 96.777621 q -21.023786,0 -21.023786,24.401545 0,24.40152 21.023786,24.40152 H 277.58218 L 96.777621,362.64171 q -21.023786,24.40153 0,48.80306 H 382.7011 q 21.02379,0 21.02379,-24.40153 0,-24.40153 -21.02379,-24.40153 H 201.89655 L 382.7011,128.38697 q 21.02379,-24.40152 21.02379,-24.40152 0,-24.401545 -21.02379,-24.401545 z"
     fill="url(#zGrad)"
     stroke="#ff6b35"
     stroke-width="6.79494"
     stroke-linejoin="round"
     id="path10"
     style="fill:url(#zGrad)" />
  <!-- Highlight shine on Z -->
  <!-- Cute sparkle stars -->
  <!-- Top right star -->
  <g
     transform="translate(428.8059,76.791155)"
     id="g12">
    <path
       d="M 0,-25 6,-6 25,0 6,6 0,25 -6,6 -25,0 -6,-6 Z"
       fill="url(#starGrad)"
       id="path12"
       style="fill:url(#radialGradient15)" />
  </g>
  <!-- Small star -->
  <g
     transform="matrix(0.6,0,0,0.6,129.65848,247.65602)"
     id="g13">
    <path
       d="M 0,-25 6,-6 25,0 6,6 0,25 -6,6 -25,0 -6,-6 Z"
       fill="url(#starGrad)"
       id="path13"
       style="fill:url(#radialGradient16)" />
  </g>
  <!-- Tiny sparkle -->
  <g
     transform="matrix(0.4,0,0,0.4,329.2973,252.96314)"
     id="g14">
    <path
       d="M 0,-25 6,-6 25,0 6,6 0,25 -6,6 -25,0 -6,-6 Z"
       fill="#ffffff"
       id="path14" />
  </g>
  <!-- Bottom accent sparkle -->
  <g
     transform="matrix(0.5,0,0,0.5,424.02948,456.9828)"
     id="g15">
    <path
       d="M 0,-25 6,-6 25,0 6,6 0,25 -6,6 -25,0 -6,-6 Z"
       fill="url(#starGrad)"
       id="path15"
       style="fill:url(#radialGradient17)" />
  </g>
</svg>
